<?xml version="1.0" encoding="UTF-8" standalone="no"?>
<svg
   xmlns:dc="http://purl.org/dc/elements/1.1/"
   xmlns:cc="http://creativecommons.org/ns#"
   xmlns:rdf="http://www.w3.org/1999/02/22-rdf-syntax-ns#"
   xmlns:svg="http://www.w3.org/2000/svg"
   xmlns="http://www.w3.org/2000/svg"
   xmlns:sodipodi="http://sodipodi.sourceforge.net/DTD/sodipodi-0.dtd"
   xmlns:inkscape="http://www.inkscape.org/namespaces/inkscape"
   width="256px"
   height="256px"
   viewBox="0 0 256 256"
   version="1.1"
   preserveAspectRatio="xMidYMid"
   id="svg2"
   inkscape:version="0.91 r13725"
   sodipodi:docname="r-lang.svg">
  <metadata
     id="metadata19">
    <rdf:RDF>
      <cc:Work
         rdf:about="">
        <dc:format>image/svg+xml</dc:format>
        <dc:type
           rdf:resource="http://purl.org/dc/dcmitype/StillImage" />
      </cc:Work>
    </rdf:RDF>
  </metadata>
  <sodipodi:namedview
     pagecolor="#ffffff"
     bordercolor="#666666"
     borderopacity="1"
     objecttolerance="10"
     gridtolerance="10"
     guidetolerance="10"
     inkscape:pageopacity="0"
     inkscape:pageshadow="2"
     inkscape:window-width="640"
     inkscape:window-height="480"
     id="namedview17"
     showgrid="false"
     inkscape:zoom="0.921875"
     inkscape:cx="128"
     inkscape:cy="128"
     inkscape:window-x="288"
     inkscape:window-y="61"
     inkscape:window-maximized="0"
     inkscape:current-layer="svg2" />
  <defs
     id="defs4">
    <linearGradient
       x1="78.819669"
       y1="35.284611"
       x2="189.13953"
       y2="158.42991"
       id="linearGradient-1"
       gradientTransform="scale(1.2333188,0.81082038)"
       gradientUnits="userSpaceOnUse">
      <stop
         stop-color="#C9CBCE"
         offset="0%"
         id="stop7" />
      <stop
         stop-color="#7B7A81"
         offset="100%"
         id="stop9" />
    </linearGradient>
  </defs>
  <g
     id="g11"
     transform="translate(0,30)">
    <path
       d="M 149.333,149.333 C 96,149.333 50.674,122.62 50.674,90.62 50.674,58.62 90.667,32 144,32 c 67.357,0 98.572,25.911 98.572,57.911 0,32 -34.407,59.422 -93.239,59.422 M 128,0 C 58.667,0 0,37.333 0,85.333 0,130.667 58.312,168.302 127.646,168.302 196.979,168.302 256,133.333 256,85.333 256,37.333 197.333,0 128,0"
       id="path13"
       style="fill:url(#linearGradient-1)"
       inkscape:connector-curvature="0" />
    <path
       d="m 105.946,51.829 0,141.109 42.643,0 0,-54.875 c 10.661,0 17.011,-2.328 23.986,10.452 10.661,18.292 23.987,44.423 23.987,44.423 l 50.638,0 c 0,0 -31.982,-52.262 -34.647,-54.875 -4.915,-5.227 -10.661,-5.227 -18.656,-7.84 15.991,-2.613 30.899,-9.248 36.082,-23.464 4.531,-13.065 3.998,-29.685 -5.714,-40.83 -8.411,-8.819 -17.042,-14.1 -38.364,-14.1 l -79.955,0 0,0 z m 42.643,29.388 27.984,0 c 6.636,0 11.993,6.533 11.993,13.065 0,6.533 -5.33,13.066 -11.993,13.066 l -27.984,0 0,-26.131 0,0 z"
       id="path15"
       inkscape:connector-curvature="0"
       style="fill:#2165b6" />
  </g>
</svg>
