<?xml version="1.0" encoding="UTF-8" standalone="no"?>
<!-- Generator: Adobe Illustrator 16.0.0, SVG Export Plug-In . SVG Version: 6.00 Build 0)  -->

<svg
   xmlns:dc="http://purl.org/dc/elements/1.1/"
   xmlns:cc="http://creativecommons.org/ns#"
   xmlns:rdf="http://www.w3.org/1999/02/22-rdf-syntax-ns#"
   xmlns:svg="http://www.w3.org/2000/svg"
   xmlns="http://www.w3.org/2000/svg"
   xmlns:xlink="http://www.w3.org/1999/xlink"
   xmlns:sodipodi="http://sodipodi.sourceforge.net/DTD/sodipodi-0.dtd"
   xmlns:inkscape="http://www.inkscape.org/namespaces/inkscape"
   version="1.1"
   id="Layer_1"
   x="0px"
   y="0px"
   width="1215.66px"
   height="492.897px"
   viewBox="0 0 1215.66 492.897"
   enable-background="new 0 0 1215.66 492.897"
   xml:space="preserve"
   inkscape:version="0.91 r13725"
   sodipodi:docname="new-bg.svg"><metadata
     id="metadata3299"><rdf:RDF><cc:Work
         rdf:about=""><dc:format>image/svg+xml</dc:format><dc:type
           rdf:resource="http://purl.org/dc/dcmitype/StillImage" /></cc:Work></rdf:RDF></metadata><defs
     id="defs3297"><defs
       id="defs5"><rect
         height="734.897"
         width="2529.66"
         id="SVGID_1_" /></defs><clipPath
       id="SVGID_2_"><use
         id="use9"
         overflow="visible"
         xlink:href="#SVGID_1_" /></clipPath><defs
       id="defs3281"><rect
         id="SVGID_33_"
         width="2529.656"
         height="734.89697"
         x="0"
         y="0" /></defs><clipPath
       id="SVGID_34_"><use
         xlink:href="#SVGID_33_"
         overflow="visible"
         id="use3285"
         style="overflow:visible"
         x="0"
         y="0"
         width="100%"
         height="100%" /></clipPath><defs
       id="defs3151"><rect
         id="SVGID_11_"
         x="1270.449"
         y="71.442001"
         width="556.60797"
         height="423.37701" /></defs><clipPath
       id="SVGID_12_"><use
         xlink:href="#SVGID_11_"
         overflow="visible"
         id="use3155"
         style="overflow:visible"
         x="0"
         y="0"
         width="100%"
         height="100%" /></clipPath><defs
       id="defs3081"><rect
         id="SVGID_5_"
         width="2529.656"
         height="734.89697"
         x="0"
         y="0" /></defs><clipPath
       id="SVGID_6_"><use
         xlink:href="#SVGID_5_"
         overflow="visible"
         id="use3085"
         style="overflow:visible"
         x="0"
         y="0"
         width="100%"
         height="100%" /></clipPath><defs
       id="defs37"><rect
         id="SVGID_3_"
         width="2529.656"
         height="734.89697"
         x="0"
         y="0" /></defs><clipPath
       id="SVGID_4_"><use
         xlink:href="#SVGID_3_"
         overflow="visible"
         id="use41"
         style="overflow:visible"
         x="0"
         y="0"
         width="100%"
         height="100%" /></clipPath></defs><sodipodi:namedview
     pagecolor="#ffffff"
     bordercolor="#666666"
     borderopacity="1"
     objecttolerance="10"
     gridtolerance="10"
     guidetolerance="10"
     inkscape:pageopacity="0"
     inkscape:pageshadow="2"
     inkscape:window-width="1238"
     inkscape:window-height="755"
     id="namedview3295"
     showgrid="false"
     inkscape:zoom="0.87822939"
     inkscape:cx="626.26007"
     inkscape:cy="159.862"
     inkscape:window-x="42"
     inkscape:window-y="0"
     inkscape:window-maximized="1"
     inkscape:current-layer="Layer_1" /><text
     xml:space="preserve"
     style="font-style:normal;font-weight:normal;font-size:13.75px;line-height:125%;font-family:sans-serif;letter-spacing:0px;word-spacing:0px;fill:#000000;fill-opacity:1;stroke:none;stroke-width:1px;stroke-linecap:butt;stroke-linejoin:miter;stroke-opacity:1;"
     x="124.40768"
     y="97.519737"
     id="text9929"
     sodipodi:linespacing="125%"><tspan
       sodipodi:role="line"
       id="tspan9931"
       x="124.40768"
       y="97.519737" /></text>
<polygon
     clip-path="url(#SVGID_4_)"
     points="86.817,127.045 73.976,120.333 68.708,119.169 60.856,123.192 51.572,120.028 49.569,121.953 36.138,111.814 32.261,119.385 22.487,124.749 15.713,122.417 12.258,132.912 1.943,139.99 142.091,139.761 137.569,133.749 133.138,133.838 125.066,129.711 120.747,135.129 104.209,129.864 96.921,118.504 92.959,124.988 "
     id="polygon1447"
     style="fill:#eff7f9" /><polygon
     clip-path="url(#SVGID_4_)"
     stroke-miterlimit="10"
     points="86.817,127.045 73.976,120.333 68.708,119.169 60.856,123.192 51.572,120.028 49.569,121.953 36.138,111.814 32.261,119.385 22.487,124.749 15.713,122.417 12.258,132.912 1.943,139.99 142.091,139.761 137.569,133.749 133.138,133.838 125.066,129.711 120.747,135.129 104.209,129.864 96.921,118.504 92.959,124.988 "
     id="polygon1449"
     style="fill:none;stroke:#96d2e4;stroke-miterlimit:10" /><polygon
     clip-path="url(#SVGID_4_)"
     points="74.286,166.214 58.835,163.886 53.594,171.89 49.005,168.172 35.236,166.161 31.771,164.131 29.667,167.752 21.613,165.662 18.717,166.693 8.545,161.963 1.943,164.315 1.943,178.199 138.241,178.28 122.678,172.338 115.445,166.691 110.696,168.383 104.9,174.104 91.952,157.178 88.362,158.458 84.246,164.493 "
     id="polygon1451"
     style="fill:#f5fafb" /><polygon
     clip-path="url(#SVGID_4_)"
     stroke-miterlimit="10"
     points="74.286,166.214 58.835,163.886 53.594,171.89 49.005,168.172 35.236,166.161 31.771,164.131 29.667,167.752 21.613,165.662 18.717,166.693 8.545,161.963 1.943,164.315 1.943,178.199 138.241,178.28 122.678,172.338 115.445,166.691 110.696,168.383 104.9,174.104 91.952,157.178 88.362,158.458 84.246,164.493 "
     id="polygon1453"
     style="fill:none;stroke:#d2ebf1;stroke-miterlimit:10" /><polygon
     clip-path="url(#SVGID_4_)"
     points="1.943,255.033 11.813,258.672 18.265,262.991 19.543,259.066 29.557,264.229 29.35,257.858 32.786,253.482 55.423,261.937 63.313,258.51 67.763,250.181 77.857,256.497 87.247,257.691 90.405,244.076 98.559,251.021 102.631,248.896 112.697,258.385 125.81,262.727 130,261.085 138.291,271.533 1.943,271.254 "
     id="polygon1455"
     style="fill:#f5fafb" /><polygon
     clip-path="url(#SVGID_4_)"
     stroke-miterlimit="10"
     points="1.943,255.033 11.813,258.672 18.265,262.991 19.543,259.066 29.557,264.229 29.35,257.858 32.786,253.482 55.423,261.937 63.313,258.51 67.763,250.181 77.857,256.497 87.247,257.691 90.405,244.076 98.559,251.021 102.631,248.896 112.697,258.385 125.81,262.727 130,261.085 138.291,271.533 1.943,271.254 "
     id="polygon1457"
     style="fill:none;stroke:#d2ebf1;stroke-miterlimit:10" /><polygon
     clip-path="url(#SVGID_4_)"
     points="65.142,209.674 56.091,217.891 35.243,210.128 32.506,216.208 28.249,215.528 24.924,219.652 16.514,214.584 15.898,221.484 7.452,220.294 1.943,223.322 144.297,223.503 126.281,209.623 125.914,217.141 120.073,213.51 114.862,218.392 102.554,205.605 83.624,193.686 75.784,209.385 "
     id="polygon1459"
     style="fill:#f5fafb" /><polygon
     clip-path="url(#SVGID_4_)"
     stroke-miterlimit="10"
     points="65.142,209.674 56.091,217.891 35.243,210.128 32.506,216.208 28.249,215.528 24.924,219.652 16.514,214.584 15.898,221.484 7.452,220.294 1.943,223.322 144.297,223.503 126.281,209.623 125.914,217.141 120.073,213.51 114.862,218.392 102.554,205.605 83.624,193.686 75.784,209.385 "
     id="polygon1461"
     style="fill:none;stroke:#d2ebf1;stroke-miterlimit:10" /><polygon
     clip-path="url(#SVGID_4_)"
     points="288.82,127.045 275.979,120.333 270.71,119.169 262.859,123.192 253.575,120.028 251.572,121.953 238.141,111.814 234.264,119.385 224.49,124.749 217.716,122.417 214.261,132.912 203.946,139.99 344.094,139.761 339.572,133.749 335.141,133.838 327.069,129.711 322.75,135.129 306.212,129.864 298.924,118.504 294.962,124.988 "
     id="polygon1483"
     style="fill:#f5fafb" /><polygon
     clip-path="url(#SVGID_4_)"
     stroke-miterlimit="10"
     points="288.82,127.045 275.979,120.333 270.71,119.169 262.859,123.192 253.575,120.028 251.572,121.953 238.141,111.814 234.264,119.385 224.49,124.749 217.716,122.417 214.261,132.912 203.946,139.99 344.094,139.761 339.572,133.749 335.141,133.838 327.069,129.711 322.75,135.129 306.212,129.864 298.924,118.504 294.962,124.988 "
     id="polygon1485"
     style="fill:none;stroke:#d2ebf1;stroke-miterlimit:10" /><polygon
     clip-path="url(#SVGID_4_)"
     points="276.288,166.214 260.838,163.886 255.596,171.89 251.008,168.172 237.238,166.161 233.773,164.131 231.67,167.752 223.615,165.662 220.719,166.693 210.548,161.963 203.946,164.315 203.946,178.199 340.243,178.28 324.68,172.338 317.447,166.691 312.698,168.383 306.903,174.104 293.954,157.178 290.364,158.458 286.248,164.493 "
     id="polygon1487"
     style="fill:#eff7f9" /><polygon
     clip-path="url(#SVGID_4_)"
     stroke-miterlimit="10"
     points="276.288,166.214 260.838,163.886 255.596,171.89 251.008,168.172 237.238,166.161 233.773,164.131 231.67,167.752 223.615,165.662 220.719,166.693 210.548,161.963 203.946,164.315 203.946,178.199 340.243,178.28 324.68,172.338 317.447,166.691 312.698,168.383 306.903,174.104 293.954,157.178 290.364,158.458 286.248,164.493 "
     id="polygon1489"
     style="fill:none;stroke:#96d2e4;stroke-miterlimit:10" /><polygon
     clip-path="url(#SVGID_4_)"
     points="203.946,255.033 213.816,258.672 220.267,262.991 221.546,259.066 231.559,264.229 231.352,257.858 234.788,253.482 257.426,261.937 265.316,258.51 269.766,250.181 279.86,256.497 289.249,257.691 292.408,244.076 300.561,251.021 304.634,248.896 314.7,258.385 327.812,262.727 332.003,261.085 340.293,271.533 203.946,271.254 "
     id="polygon1491"
     style="fill:#f5fafb" /><polygon
     clip-path="url(#SVGID_4_)"
     stroke-miterlimit="10"
     points="203.946,255.033 213.816,258.672 220.267,262.991 221.546,259.066 231.559,264.229 231.352,257.858 234.788,253.482 257.426,261.937 265.316,258.51 269.766,250.181 279.86,256.497 289.249,257.691 292.408,244.076 300.561,251.021 304.634,248.896 314.7,258.385 327.812,262.727 332.003,261.085 340.293,271.533 203.946,271.254 "
     id="polygon1493"
     style="fill:none;stroke:#d2ebf1;stroke-miterlimit:10" /><polygon
     clip-path="url(#SVGID_4_)"
     points="267.145,209.674 258.094,217.891 237.246,210.128 234.509,216.208 230.25,215.528 226.927,219.652 218.517,214.584 217.901,221.484 209.455,220.294 203.946,223.322 346.3,223.503 328.284,209.623 327.917,217.141 322.076,213.51 316.865,218.392 304.557,205.605 285.625,193.686 277.787,209.385 "
     id="polygon1495"
     style="fill:#f5fafb" /><polygon
     clip-path="url(#SVGID_4_)"
     stroke-miterlimit="10"
     points="267.145,209.674 258.094,217.891 237.246,210.128 234.509,216.208 230.25,215.528 226.927,219.652 218.517,214.584 217.901,221.484 209.455,220.294 203.946,223.322 346.3,223.503 328.284,209.623 327.917,217.141 322.076,213.51 316.865,218.392 304.557,205.605 285.625,193.686 277.787,209.385 "
     id="polygon1497"
     style="fill:none;stroke:#d2ebf1;stroke-miterlimit:10" /><line
     clip-path="url(#SVGID_4_)"
     stroke-miterlimit="10"
     x1="1.943"
     y1="61.077"
     x2="163.493"
     y2="61.077"
     id="line1519"
     style="fill:none;stroke:#97d3e4;stroke-width:2;stroke-miterlimit:10" /><line
     clip-path="url(#SVGID_4_)"
     stroke-miterlimit="10"
     x1="1.943"
     y1="341.32599"
     x2="203.94501"
     y2="341.32599"
     id="line1521"
     style="fill:none;stroke:#97d3e4;stroke-width:2;stroke-miterlimit:10" /><line
     clip-path="url(#SVGID_4_)"
     stroke-miterlimit="10"
     x1="203.946"
     y1="61.077"
     x2="365.495"
     y2="61.077"
     id="line1527"
     style="fill:none;stroke:#97d3e4;stroke-width:2;stroke-miterlimit:10" /><text
     xml:space="preserve"
     style="font-style:normal;font-weight:normal;font-size:13.75px;line-height:125%;font-family:sans-serif;letter-spacing:0px;word-spacing:0px;fill:#d2ebf1;fill-opacity:1;stroke:none;stroke-width:1px;stroke-linecap:butt;stroke-linejoin:miter;stroke-opacity:1"
     x="2.586"
     y="95.64373"
     id="text10919"
     sodipodi:linespacing="125%"><tspan
       sodipodi:role="line"
       id="tspan10921"
       x="2.586"
       y="95.64373">TIME SERIES  1</tspan></text>
<text
     xml:space="preserve"
     style="font-style:normal;font-weight:normal;font-size:13.75px;line-height:125%;font-family:sans-serif;letter-spacing:0px;word-spacing:0px;fill:#d2ebf1;fill-opacity:1;stroke:none;stroke-width:1px;stroke-linecap:butt;stroke-linejoin:miter;stroke-opacity:1"
     x="205.226"
     y="95.64373"
     id="text10923"
     sodipodi:linespacing="125%"><tspan
       sodipodi:role="line"
       id="tspan10925"
       x="205.226"
       y="95.64373">TIME SERIES  2</tspan></text>
<line
     clip-path="url(#SVGID_4_)"
     stroke-miterlimit="10"
     x1="563.49298"
     y1="341.32599"
     x2="765.495"
     y2="341.32599"
     id="line1525"
     style="fill:none;stroke:#97d3e4;stroke-width:2;stroke-miterlimit:10"
     transform="translate(447.99721,0)" /><polygon
     clip-path="url(#SVGID_4_)"
     points="475.979,120.333 470.71,119.169 462.859,123.192 453.575,120.028 451.572,121.953 438.141,111.814 434.264,119.385 424.49,124.749 417.716,122.417 414.261,132.912 403.946,139.99 544.094,139.761 539.572,133.749 535.141,133.838 527.069,129.711 522.75,135.129 506.212,129.864 498.924,118.504 494.962,124.988 488.82,127.045 "
     id="polygon1529"
     style="fill:#f5fafb"
     transform="translate(447.99721,0)" /><polygon
     clip-path="url(#SVGID_4_)"
     stroke-miterlimit="10"
     points="475.979,120.333 470.71,119.169 462.859,123.192 453.575,120.028 451.572,121.953 438.141,111.814 434.264,119.385 424.49,124.749 417.716,122.417 414.261,132.912 403.946,139.99 544.094,139.761 539.572,133.749 535.141,133.838 527.069,129.711 522.75,135.129 506.212,129.864 498.924,118.504 494.962,124.988 488.82,127.045 "
     id="polygon1531"
     style="fill:none;stroke:#d2ebf1;stroke-miterlimit:10"
     transform="translate(447.99721,0)" /><polygon
     clip-path="url(#SVGID_4_)"
     points="460.838,163.886 455.596,171.89 451.008,168.172 437.238,166.161 433.773,164.131 431.67,167.752 423.615,165.662 420.719,166.693 410.548,161.963 403.946,164.315 403.946,178.199 540.243,178.28 524.68,172.338 517.447,166.691 512.698,168.383 506.903,174.104 493.954,157.178 490.364,158.458 486.248,164.493 476.288,166.214 "
     id="polygon1533"
     style="fill:#f5fafb"
     transform="translate(447.99721,0)" /><polygon
     clip-path="url(#SVGID_4_)"
     stroke-miterlimit="10"
     points="460.838,163.886 455.596,171.89 451.008,168.172 437.238,166.161 433.773,164.131 431.67,167.752 423.615,165.662 420.719,166.693 410.548,161.963 403.946,164.315 403.946,178.199 540.243,178.28 524.68,172.338 517.447,166.691 512.698,168.383 506.903,174.104 493.954,157.178 490.364,158.458 486.248,164.493 476.288,166.214 "
     id="polygon1535"
     style="fill:none;stroke:#d2ebf1;stroke-miterlimit:10"
     transform="translate(447.99721,0)" /><polygon
     clip-path="url(#SVGID_4_)"
     points="413.816,258.672 420.267,262.991 421.546,259.066 431.559,264.229 431.352,257.858 434.788,253.482 457.426,261.937 465.316,258.51 469.766,250.181 479.86,256.497 489.249,257.691 492.408,244.076 500.561,251.021 504.634,248.896 514.7,258.385 527.812,262.727 532.003,261.085 540.293,271.533 403.946,271.254 403.946,255.033 "
     id="polygon1537"
     style="fill:#f5fafb"
     transform="translate(447.99721,0)" /><polygon
     clip-path="url(#SVGID_4_)"
     stroke-miterlimit="10"
     points="413.816,258.672 420.267,262.991 421.546,259.066 431.559,264.229 431.352,257.858 434.788,253.482 457.426,261.937 465.316,258.51 469.766,250.181 479.86,256.497 489.249,257.691 492.408,244.076 500.561,251.021 504.634,248.896 514.7,258.385 527.812,262.727 532.003,261.085 540.293,271.533 403.946,271.254 403.946,255.033 "
     id="polygon1539"
     style="fill:none;stroke:#d2ebf1;stroke-miterlimit:10"
     transform="translate(447.99721,0)" /><polygon
     clip-path="url(#SVGID_4_)"
     points="458.094,217.891 437.246,210.128 434.509,216.208 430.25,215.528 426.927,219.652 418.517,214.584 417.901,221.484 409.455,220.294 403.946,223.322 546.3,223.503 528.284,209.623 527.917,217.141 522.076,213.51 516.865,218.392 504.557,205.605 485.625,193.686 477.787,209.385 467.145,209.674 "
     id="polygon1541"
     style="fill:#eff7f9"
     transform="translate(447.99721,0)" /><polygon
     clip-path="url(#SVGID_4_)"
     stroke-miterlimit="10"
     points="458.094,217.891 437.246,210.128 434.509,216.208 430.25,215.528 426.927,219.652 418.517,214.584 417.901,221.484 409.455,220.294 403.946,223.322 546.3,223.503 528.284,209.623 527.917,217.141 522.076,213.51 516.865,218.392 504.557,205.605 485.625,193.686 477.787,209.385 467.145,209.674 "
     id="polygon1543"
     style="fill:none;stroke:#96d2e4;stroke-miterlimit:10"
     transform="translate(447.99721,0)" /><line
     clip-path="url(#SVGID_4_)"
     stroke-miterlimit="10"
     x1="403.94601"
     y1="61.077"
     x2="565.495"
     y2="61.077"
     id="line1565"
     style="fill:none;stroke:#97d3e4;stroke-width:2;stroke-miterlimit:10"
     transform="translate(447.99721,0)" /><polygon
     clip-path="url(#SVGID_4_)"
     points="676.231,120.333 670.963,119.169 663.111,123.192 653.827,120.028 651.824,121.953 638.393,111.814 634.516,119.385 624.742,124.749 617.968,122.417 614.513,132.912 604.198,139.99 744.346,139.761 739.824,133.749 735.393,133.838 727.321,129.711 723.002,135.129 706.464,129.864 699.176,118.504 695.214,124.988 689.072,127.045 "
     id="polygon1567"
     style="fill:#f5fafb"
     transform="translate(447.99721,0)" /><polygon
     clip-path="url(#SVGID_4_)"
     stroke-miterlimit="10"
     points="676.231,120.333 670.963,119.169 663.111,123.192 653.827,120.028 651.824,121.953 638.393,111.814 634.516,119.385 624.742,124.749 617.968,122.417 614.513,132.912 604.198,139.99 744.346,139.761 739.824,133.749 735.393,133.838 727.321,129.711 723.002,135.129 706.464,129.864 699.176,118.504 695.214,124.988 689.072,127.045 "
     id="polygon1569"
     style="fill:none;stroke:#d2ebf1;stroke-miterlimit:10"
     transform="translate(447.99721,0)" /><polygon
     clip-path="url(#SVGID_4_)"
     points="661.09,163.886 655.849,171.89 651.26,168.172 637.49,166.161 634.025,164.131 631.922,167.752 623.867,165.662 620.971,166.693 610.8,161.963 604.198,164.315 604.198,178.199 740.496,178.28 724.933,172.338 717.699,166.691 712.95,168.383 707.155,174.104 694.207,157.178 690.616,158.458 686.5,164.493 676.541,166.214 "
     id="polygon1571"
     style="fill:#f5fafb"
     transform="translate(447.99721,0)" /><polygon
     clip-path="url(#SVGID_4_)"
     stroke-miterlimit="10"
     points="661.09,163.886 655.849,171.89 651.26,168.172 637.49,166.161 634.025,164.131 631.922,167.752 623.867,165.662 620.971,166.693 610.8,161.963 604.198,164.315 604.198,178.199 740.496,178.28 724.933,172.338 717.699,166.691 712.95,168.383 707.155,174.104 694.207,157.178 690.616,158.458 686.5,164.493 676.541,166.214 "
     id="polygon1573"
     style="fill:none;stroke:#d2ebf1;stroke-miterlimit:10"
     transform="translate(447.99721,0)" /><polygon
     clip-path="url(#SVGID_4_)"
     points="614.068,258.672 620.519,262.991 621.798,259.066 631.811,264.229 631.604,257.858 635.04,253.482 657.678,261.937 665.568,258.51 670.018,250.181 680.112,256.497 689.501,257.691 692.66,244.076 700.813,251.021 704.886,248.896 714.952,258.385 728.064,262.727 732.255,261.085 740.545,271.533 604.198,271.254 604.198,255.033 "
     id="polygon1575"
     style="fill:#eff7f9"
     transform="translate(447.99721,0)" /><polygon
     clip-path="url(#SVGID_4_)"
     stroke-miterlimit="10"
     points="614.068,258.672 620.519,262.991 621.798,259.066 631.811,264.229 631.604,257.858 635.04,253.482 657.678,261.937 665.568,258.51 670.018,250.181 680.112,256.497 689.501,257.691 692.66,244.076 700.813,251.021 704.886,248.896 714.952,258.385 728.064,262.727 732.255,261.085 740.545,271.533 604.198,271.254 604.198,255.033 "
     id="polygon1577"
     style="fill:none;stroke:#96d2e4;stroke-miterlimit:10"
     transform="translate(447.99721,0)" /><polygon
     clip-path="url(#SVGID_4_)"
     points="658.346,217.891 637.498,210.128 634.761,216.208 630.503,215.528 627.179,219.652 618.769,214.584 618.153,221.484 609.707,220.294 604.198,223.322 746.552,223.503 728.536,209.623 728.169,217.141 722.328,213.51 717.117,218.392 704.809,205.605 685.878,193.686 678.039,209.385 667.397,209.674 "
     id="polygon1579"
     style="fill:#f5fafb"
     transform="translate(447.99721,0)" /><polygon
     clip-path="url(#SVGID_4_)"
     stroke-miterlimit="10"
     points="658.346,217.891 637.498,210.128 634.761,216.208 630.503,215.528 627.179,219.652 618.769,214.584 618.153,221.484 609.707,220.294 604.198,223.322 746.552,223.503 728.536,209.623 728.169,217.141 722.328,213.51 717.117,218.392 704.809,205.605 685.878,193.686 678.039,209.385 667.397,209.674 "
     id="polygon1581"
     style="fill:none;stroke:#d2ebf1;stroke-miterlimit:10"
     transform="translate(447.99721,0)" /><line
     clip-path="url(#SVGID_4_)"
     stroke-miterlimit="10"
     x1="604.198"
     y1="61.077"
     x2="765.74701"
     y2="61.077"
     id="line1603"
     style="fill:none;stroke:#97d3e4;stroke-width:2;stroke-miterlimit:10"
     transform="translate(447.99721,0)" /><text
     xml:space="preserve"
     style="font-style:normal;font-weight:normal;font-size:13.75px;line-height:125%;font-family:sans-serif;letter-spacing:0px;word-spacing:0px;fill:#d2ebf1;fill-opacity:1;stroke:none;stroke-width:1px;stroke-linecap:butt;stroke-linejoin:miter;stroke-opacity:1"
     x="853.22321"
     y="95.616875"
     id="text10927"
     sodipodi:linespacing="125%"><tspan
       sodipodi:role="line"
       id="tspan10929"
       x="853.22321"
       y="95.616875">TIME SERIES  3</tspan></text>
<text
     xml:space="preserve"
     style="font-style:normal;font-weight:normal;font-size:13.75px;line-height:125%;font-family:sans-serif;letter-spacing:0px;word-spacing:0px;fill:#d2ebf1;fill-opacity:1;stroke:none;stroke-width:1px;stroke-linecap:butt;stroke-linejoin:miter;stroke-opacity:1"
     x="1053.4762"
     y="95.64373"
     id="text10931"
     sodipodi:linespacing="125%"><tspan
       sodipodi:role="line"
       id="tspan10933"
       x="1053.4762"
       y="95.64373">TIME SERIES  4</tspan></text>
<text
     xml:space="preserve"
     style="font-style:normal;font-variant:normal;font-weight:bold;font-stretch:normal;font-size:6.875px;line-height:0%;font-family:Helvetica;-inkscape-font-specification:'Helvetica, Bold';text-align:start;letter-spacing:0px;word-spacing:0px;writing-mode:lr-tb;text-anchor:start;fill:#d2ebf1;fill-opacity:1;stroke:none;stroke-width:1px;stroke-linecap:butt;stroke-linejoin:miter;stroke-opacity:1"
     x="4.181633"
     y="367.17648"
     id="text5492"
     sodipodi:linespacing="0%"><tspan
       sodipodi:role="line"
       id="tspan5528"
       x="4.181633"
       y="367.17648">#!/usr/bin/env rscript</tspan></text>
<text
     xml:space="preserve"
     style="font-style:normal;font-variant:normal;font-weight:bold;font-stretch:normal;font-size:6.875px;line-height:125%;font-family:Helvetica;-inkscape-font-specification:'Helvetica, Bold';text-align:start;letter-spacing:0px;word-spacing:0px;writing-mode:lr-tb;text-anchor:start;fill:#d2ebf1;fill-opacity:1;stroke:none;stroke-width:1px;stroke-linecap:butt;stroke-linejoin:miter;stroke-opacity:1"
     x="3.7153864"
     y="381.7778"
     id="text5530"
     sodipodi:linespacing="125%"><tspan
       sodipodi:role="line"
       id="tspan5782"
       x="3.7153864"
       y="381.7778">library(data.table)</tspan><tspan
       sodipodi:role="line"
       id="tspan5784"
       x="3.7153864"
       y="390.37155">library(lubridate)</tspan></text>
<text
     xml:space="preserve"
     style="font-style:normal;font-variant:normal;font-weight:bold;font-stretch:normal;font-size:6.875px;line-height:125%;font-family:Helvetica;-inkscape-font-specification:'Helvetica, Bold';text-align:start;letter-spacing:0px;word-spacing:0px;writing-mode:lr-tb;text-anchor:start;fill:#d2ebf1;fill-opacity:1;stroke:none;stroke-width:1px;stroke-linecap:butt;stroke-linejoin:miter;stroke-opacity:1"
     x="4.1820002"
     y="406.95035"
     id="text5646"
     sodipodi:linespacing="125%"><tspan
       sodipodi:role="line"
       id="tspan5734"
       x="4.1820002"
       y="406.95035">AddYearMonth &lt;- function(DT, date_col){</tspan><tspan
       sodipodi:role="line"
       id="tspan5736"
       x="4.1820002"
       y="415.5441">    # Add year and month to current data.table</tspan><tspan
       sodipodi:role="line"
       id="tspan5738"
       x="4.1820002"
       y="424.13785">    #   This function will convert a date column into a R time class,</tspan><tspan
       sodipodi:role="line"
       id="tspan5740"
       x="4.1820002"
       y="432.7316">    #   then add two columns indicate year and month respectively</tspan><tspan
       sodipodi:role="line"
       id="tspan5742"
       x="4.1820002"
       y="441.32535">    #</tspan><tspan
       sodipodi:role="line"
       id="tspan5744"
       x="4.1820002"
       y="449.9191">    # Args:</tspan><tspan
       sodipodi:role="line"
       id="tspan5746"
       x="4.1820002"
       y="458.51285">    #   DT: Input data.table</tspan><tspan
       sodipodi:role="line"
       id="tspan5748"
       x="4.1820002"
       y="467.1066">    #   data_col: Input indicates which column is the date column</tspan><tspan
       sodipodi:role="line"
       id="tspan5750"
       x="4.1820002"
       y="475.70035">    #                 Can be numeric or character</tspan><tspan
       sodipodi:role="line"
       id="tspan5752"
       x="4.1820002"
       y="484.2941">    #</tspan><tspan
       sodipodi:role="line"
       id="tspan5754"
       x="4.1820002"
       y="492.88785">    # Returns:</tspan><tspan
       sodipodi:role="line"
       id="tspan5756"
       x="4.1820002"
       y="501.4816">    #   Data.table with date, year, month columns</tspan><tspan
       sodipodi:role="line"
       id="tspan5758"
       x="4.1820002"
       y="510.07535">    A = copy(DT)</tspan><tspan
       sodipodi:role="line"
       id="tspan5760"
       x="4.1820002"
       y="518.66907">    col &lt;- substitute(date_col)</tspan><tspan
       sodipodi:role="line"
       id="tspan5762"
       x="4.1820002"
       y="527.26282">    if (is.numeric(col)) {</tspan><tspan
       sodipodi:role="line"
       id="tspan5764"
       x="4.1820002"
       y="535.85657">        setnames(A, colnames(A)[col], &quot;date&quot;)</tspan><tspan
       sodipodi:role="line"
       id="tspan5766"
       x="4.1820002"
       y="544.45032">    } else if (is.character(col)) {</tspan><tspan
       sodipodi:role="line"
       id="tspan5768"
       x="4.1820002"
       y="553.04407">        setnames(A, col, &quot;date&quot;)</tspan><tspan
       sodipodi:role="line"
       id="tspan5770"
       x="4.1820002"
       y="561.63782">    } else {</tspan><tspan
       sodipodi:role="line"
       id="tspan5772"
       x="4.1820002"
       y="570.23157">        setnames(A, deparse(col), &quot;date&quot;)</tspan><tspan
       sodipodi:role="line"
       id="tspan5774"
       x="4.1820002"
       y="578.82532">    }</tspan><tspan
       sodipodi:role="line"
       id="tspan5776"
       x="4.1820002"
       y="587.41907">    A[, date := ymd(date)][, ':='(year = year(date), month = month(date))]</tspan><tspan
       sodipodi:role="line"
       id="tspan5778"
       x="4.1820002"
       y="596.01282">    return(A)</tspan><tspan
       sodipodi:role="line"
       id="tspan5780"
       x="4.1820002"
       y="604.60657">}</tspan></text>
<text
     xml:space="preserve"
     style="font-style:normal;font-variant:normal;font-weight:bold;font-stretch:normal;font-size:6.875px;line-height:125%;font-family:Helvetica;-inkscape-font-specification:'Helvetica, Bold';text-align:start;letter-spacing:0px;word-spacing:0px;writing-mode:lr-tb;text-anchor:start;fill:#d2ebf1;fill-opacity:1;stroke:none;stroke-width:1px;stroke-linecap:butt;stroke-linejoin:miter;stroke-opacity:1;"
     x="1015.9839"
     y="368.68863"
     id="text4525"
     sodipodi:linespacing="125%"><tspan
       sodipodi:role="line"
       id="tspan4527"
       x="1015.9839"
       y="368.68863"># read in the daily data</tspan><tspan
       sodipodi:role="line"
       x="1015.9839"
       y="377.28238"
       id="tspan4529">daily_data      &lt;- fread('data_daily.csv')</tspan><tspan
       sodipodi:role="line"
       x="1015.9839"
       y="385.87613"
       id="tspan4614">daily_tre         &lt;- fread('treasury_daily.csv')</tspan><tspan
       sodipodi:role="line"
       x="1015.9839"
       y="394.46988"
       id="tspan4616">monthly_tre   &lt;- fread('treasury_monthly.csv')</tspan><tspan
       sodipodi:role="line"
       x="1015.9839"
       y="403.06363"
       id="tspan4618">annual_tre     &lt;- fread('treasury_annual.csv')</tspan><tspan
       sodipodi:role="line"
       x="1015.9839"
       y="411.65738"
       id="tspan4620">five_year_tre &lt;- fread('treasury_5year.csv')</tspan><tspan
       sodipodi:role="line"
       x="1015.9839"
       y="420.25113"
       id="tspan4533" /><tspan
       sodipodi:role="line"
       x="1015.9839"
       y="428.84488"
       id="tspan4628"># calculate simple returns</tspan><tspan
       sodipodi:role="line"
       x="1015.9839"
       y="437.43863"
       id="tspan4630">simple_returns &lt;- data.frame(matrix(vector(), 2, 4,</tspan><tspan
       sodipodi:role="line"
       x="1015.9839"
       y="446.03238"
       id="tspan4632">                                                               dimnames = list(c(),</tspan><tspan
       sodipodi:role="line"
       x="1015.9839"
       y="454.62613"
       id="tspan4634">                                                                                           c(&quot;daily_ret&quot;,</tspan><tspan
       sodipodi:role="line"
       x="1015.9839"
       y="463.21988"
       id="tspan4636">                                                                                              &quot;monthly_ret&quot;,</tspan><tspan
       sodipodi:role="line"
       x="1015.9839"
       y="471.81363"
       id="tspan4638">                                                                                              &quot;annual_ret&quot;,</tspan><tspan
       sodipodi:role="line"
       x="1015.9839"
       y="480.40738"
       id="tspan4640">                                                                                              &quot;five_year_ret&quot;))),</tspan><tspan
       sodipodi:role="line"
       x="1015.9839"
       y="489.00113"
       id="tspan4642">                                                   stringsAsFactors = FALSE)</tspan><tspan
       sodipodi:role="line"
       x="1015.9839"
       y="497.59488"
       id="tspan4644"></tspan><tspan
       sodipodi:role="line"
       x="1015.9839"
       y="506.18863"
       id="tspan4646">rets &lt;- list(daily_data$vwretd, monthly_data$vwretd, </tspan><tspan
       sodipodi:role="line"
       x="1015.9839"
       y="514.78235"
       id="tspan4648">                   annual_data$vwretd, five_year_data$vwretd)</tspan><tspan
       sodipodi:role="line"
       x="1015.9839"
       y="523.3761"
       id="tspan4650"></tspan><tspan
       sodipodi:role="line"
       x="1015.9839"
       y="531.96985"
       id="tspan4652">simple_returns[1,] &lt;- unlist(lapply(rets, mean))</tspan><tspan
       sodipodi:role="line"
       x="1015.9839"
       y="540.5636"
       id="tspan4654">simple_returns[2,] &lt;- unlist(lapply(rets, GeomMeanReturn))</tspan><tspan
       sodipodi:role="line"
       x="1015.9839"
       y="549.15735"
       id="tspan4656" /><tspan
       sodipodi:role="line"
       x="1015.9839"
       y="557.7511"
       id="tspan4658">cat('The simple returns are\n')</tspan><tspan
       sodipodi:role="line"
       x="1015.9839"
       y="566.34485"
       id="tspan4660">simple_returns</tspan><tspan
       sodipodi:role="line"
       x="1015.9839"
       y="574.9386"
       id="tspan4535" /></text>
</svg>